<mxfile host="app.diagrams.net" modified="2021-08-30T17:20:51.711Z" agent="5.0 (X11)" etag="uOLbW8XXgUAHY0j6ajMk" version="15.0.3" type="github">
  <diagram name="Page-1" id="929967ad-93f9-6ef4-fab6-5d389245f69c">
    <mxGraphModel dx="1418" dy="697" grid="1" gridSize="10" guides="1" tooltips="1" connect="1" arrows="1" fold="1" page="1" pageScale="1.5" pageWidth="1169" pageHeight="826" background="none" math="0" shadow="0">
      <root>
        <mxCell id="0" style=";html=1;" />
        <mxCell id="1" style=";html=1;" parent="0" />
        <mxCell id="1672d66443f91eb5-23" value="&lt;div&gt;rifa da vick&lt;/div&gt;" style="text;strokeColor=none;fillColor=none;html=1;fontSize=24;fontStyle=1;verticalAlign=middle;align=center;" parent="1" vertex="1">
          <mxGeometry x="120" y="40" width="1510" height="40" as="geometry" />
        </mxCell>
        <mxCell id="MA_M04YI_yK-X-0FqwuT-3" value="tela rifa" style="swimlane;fontStyle=0;childLayout=stackLayout;horizontal=1;startSize=26;horizontalStack=0;resizeParent=1;resizeParentMax=0;resizeLast=0;collapsible=1;marginBottom=0;" vertex="1" parent="1">
          <mxGeometry x="40" y="120" width="220" height="104" as="geometry" />
        </mxCell>
        <mxCell id="MA_M04YI_yK-X-0FqwuT-4" value="numero rifa" style="text;strokeColor=none;fillColor=none;align=left;verticalAlign=top;spacingLeft=4;spacingRight=4;overflow=hidden;rotatable=0;points=[[0,0.5],[1,0.5]];portConstraint=eastwest;" vertex="1" parent="MA_M04YI_yK-X-0FqwuT-3">
          <mxGeometry y="26" width="220" height="26" as="geometry" />
        </mxCell>
        <mxCell id="MA_M04YI_yK-X-0FqwuT-5" value="usuario vazio retorna apos cadastro" style="text;strokeColor=none;fillColor=none;align=left;verticalAlign=top;spacingLeft=4;spacingRight=4;overflow=hidden;rotatable=0;points=[[0,0.5],[1,0.5]];portConstraint=eastwest;" vertex="1" parent="MA_M04YI_yK-X-0FqwuT-3">
          <mxGeometry y="52" width="220" height="26" as="geometry" />
        </mxCell>
        <mxCell id="MA_M04YI_yK-X-0FqwuT-25" value="validado" style="text;strokeColor=none;fillColor=none;align=left;verticalAlign=top;spacingLeft=4;spacingRight=4;overflow=hidden;rotatable=0;points=[[0,0.5],[1,0.5]];portConstraint=eastwest;" vertex="1" parent="MA_M04YI_yK-X-0FqwuT-3">
          <mxGeometry y="78" width="220" height="26" as="geometry" />
        </mxCell>
        <mxCell id="MA_M04YI_yK-X-0FqwuT-7" value="cadastro" style="swimlane;fontStyle=0;childLayout=stackLayout;horizontal=1;startSize=26;horizontalStack=0;resizeParent=1;resizeParentMax=0;resizeLast=0;collapsible=1;marginBottom=0;" vertex="1" parent="1">
          <mxGeometry x="360" y="120" width="140" height="130" as="geometry" />
        </mxCell>
        <mxCell id="MA_M04YI_yK-X-0FqwuT-8" value="nome: imput" style="text;strokeColor=none;fillColor=none;align=left;verticalAlign=top;spacingLeft=4;spacingRight=4;overflow=hidden;rotatable=0;points=[[0,0.5],[1,0.5]];portConstraint=eastwest;" vertex="1" parent="MA_M04YI_yK-X-0FqwuT-7">
          <mxGeometry y="26" width="140" height="26" as="geometry" />
        </mxCell>
        <mxCell id="MA_M04YI_yK-X-0FqwuT-9" value="telefone: input" style="text;strokeColor=none;fillColor=none;align=left;verticalAlign=top;spacingLeft=4;spacingRight=4;overflow=hidden;rotatable=0;points=[[0,0.5],[1,0.5]];portConstraint=eastwest;" vertex="1" parent="MA_M04YI_yK-X-0FqwuT-7">
          <mxGeometry y="52" width="140" height="26" as="geometry" />
        </mxCell>
        <mxCell id="MA_M04YI_yK-X-0FqwuT-10" value="endereÃ§o: input" style="text;strokeColor=none;fillColor=none;align=left;verticalAlign=top;spacingLeft=4;spacingRight=4;overflow=hidden;rotatable=0;points=[[0,0.5],[1,0.5]];portConstraint=eastwest;" vertex="1" parent="MA_M04YI_yK-X-0FqwuT-7">
          <mxGeometry y="78" width="140" height="26" as="geometry" />
        </mxCell>
        <mxCell id="MA_M04YI_yK-X-0FqwuT-16" value="e-mail: input" style="text;strokeColor=none;fillColor=none;align=left;verticalAlign=top;spacingLeft=4;spacingRight=4;overflow=hidden;rotatable=0;points=[[0,0.5],[1,0.5]];portConstraint=eastwest;" vertex="1" parent="MA_M04YI_yK-X-0FqwuT-7">
          <mxGeometry y="104" width="140" height="26" as="geometry" />
        </mxCell>
        <mxCell id="MA_M04YI_yK-X-0FqwuT-21" value="" style="curved=1;endArrow=classic;html=1;exitX=1;exitY=0.5;exitDx=0;exitDy=0;" edge="1" parent="1" source="MA_M04YI_yK-X-0FqwuT-4">
          <mxGeometry width="50" height="50" relative="1" as="geometry">
            <mxPoint x="290" y="210" as="sourcePoint" />
            <mxPoint x="370" y="160" as="targetPoint" />
            <Array as="points">
              <mxPoint x="300" y="170" />
              <mxPoint x="310" y="180" />
              <mxPoint x="340" y="160" />
            </Array>
          </mxGeometry>
        </mxCell>
        <mxCell id="MA_M04YI_yK-X-0FqwuT-27" style="edgeStyle=orthogonalEdgeStyle;rounded=0;orthogonalLoop=1;jettySize=auto;html=1;exitX=1;exitY=0.25;exitDx=0;exitDy=0;entryX=0;entryY=0.25;entryDx=0;entryDy=0;" edge="1" parent="1" source="MA_M04YI_yK-X-0FqwuT-22" target="MA_M04YI_yK-X-0FqwuT-26">
          <mxGeometry relative="1" as="geometry" />
        </mxCell>
        <mxCell id="MA_M04YI_yK-X-0FqwuT-22" value="&lt;h1&gt;Heading&lt;/h1&gt;&lt;p&gt;mostra qrcode.&lt;/p&gt;&lt;p&gt;pessoa le e paga&lt;br&gt;&lt;/p&gt;" style="text;html=1;strokeColor=none;fillColor=none;spacing=5;spacingTop=-20;whiteSpace=wrap;overflow=hidden;rounded=0;" vertex="1" parent="1">
          <mxGeometry x="600" y="120" width="190" height="120" as="geometry" />
        </mxCell>
        <mxCell id="MA_M04YI_yK-X-0FqwuT-23" style="edgeStyle=orthogonalEdgeStyle;rounded=0;orthogonalLoop=1;jettySize=auto;html=1;exitX=1;exitY=0.5;exitDx=0;exitDy=0;entryX=0;entryY=0.5;entryDx=0;entryDy=0;" edge="1" parent="1" source="MA_M04YI_yK-X-0FqwuT-9" target="MA_M04YI_yK-X-0FqwuT-22">
          <mxGeometry relative="1" as="geometry" />
        </mxCell>
        <mxCell id="MA_M04YI_yK-X-0FqwuT-24" value="" style="curved=1;endArrow=classic;html=1;exitX=1;exitY=0.5;exitDx=0;exitDy=0;entryX=1;entryY=0.5;entryDx=0;entryDy=0;" edge="1" parent="1" source="MA_M04YI_yK-X-0FqwuT-22" target="MA_M04YI_yK-X-0FqwuT-5">
          <mxGeometry width="50" height="50" relative="1" as="geometry">
            <mxPoint x="700" y="390" as="sourcePoint" />
            <mxPoint x="750" y="340" as="targetPoint" />
            <Array as="points">
              <mxPoint x="500" y="270" />
              <mxPoint x="290" y="240" />
            </Array>
          </mxGeometry>
        </mxCell>
        <mxCell id="MA_M04YI_yK-X-0FqwuT-28" style="edgeStyle=orthogonalEdgeStyle;rounded=0;orthogonalLoop=1;jettySize=auto;html=1;exitX=0;exitY=0.75;exitDx=0;exitDy=0;entryX=1;entryY=0.5;entryDx=0;entryDy=0;" edge="1" parent="1" source="MA_M04YI_yK-X-0FqwuT-26" target="MA_M04YI_yK-X-0FqwuT-25">
          <mxGeometry relative="1" as="geometry">
            <Array as="points">
              <mxPoint x="595" y="270" />
              <mxPoint x="595" y="330" />
              <mxPoint x="330" y="330" />
              <mxPoint x="330" y="211" />
            </Array>
          </mxGeometry>
        </mxCell>
        <mxCell id="MA_M04YI_yK-X-0FqwuT-26" value="comprovante" style="swimlane;" vertex="1" parent="1">
          <mxGeometry x="930" y="120" width="200" height="200" as="geometry" />
        </mxCell>
      </root>
    </mxGraphModel>
  </diagram>
</mxfile>
